Coordinates
version=1
nRows=14
nColumns=36
inDegrees=yes

Units are S.I. units (second, meters, Newtons, ...)
If the header above contains a line with 'inDegrees', this indicates whether rotational values are in degrees (yes) or radians (no).

endheader
time	pelvis_tilt	pelvis_list	pelvis_rotation	pelvis_tx	pelvis_ty	pelvis_tz	hip_flexion_r	hip_adduction_r	hip_rotation_r	knee_angle_r	knee_angle_r_beta	ankle_angle_r	subtalar_angle_r	mtp_angle_r	hip_flexion_l	hip_adduction_l	hip_rotation_l	knee_angle_l	knee_angle_l_beta	ankle_angle_l	subtalar_angle_l	mtp_angle_l	lumbar_extension	lumbar_bending	lumbar_rotation	arm_flex_r	arm_add_r	arm_rot_r	elbow_flex_r	pro_sup_r	arm_flex_l	arm_add_l	arm_rot_l	elbow_flex_l	pro_sup_l
      0.00000000	      4.72561686	      0.91861519	     -4.06351705	      0.85781138	      0.82337447	      0.70831932	      9.91613179	     -1.50061530	      1.64006606	     62.63000095	      1.09309973	     -4.02850777	    -18.63231627	     -7.07983431	      1.89078071	      4.82898785	      4.76028280	     10.17348067	      0.17756073	      5.99673124	     -9.44804225	     -7.07983431	     -9.67905425	     -0.84137168	     -0.25425994	      2.51717848	     -9.96659713	     -6.43843672	     19.44656461	     90.06149174	      6.94034924	    -10.93157424	      3.06703749	     16.32539951	     87.49277510
      0.01666670	      3.67947700	      1.20226404	     -4.78966796	      0.85668273	      0.82349216	      0.70828753	     14.27384017	     -1.69399128	      2.09026227	     64.09157283	      1.11860897	      0.23961104	    -17.44867797	     -7.16489736	      1.24208007	      5.21433939	      4.48202242	      9.44297497	      0.16481100	      7.15949441	     -8.82228621	     -7.16489736	     -8.15232359	     -0.78687136	     -0.38319147	      3.29570546	    -10.30567211	     -5.44023454	     17.95958708	     90.93050436	      6.76881692	    -10.82655554	      3.78508466	     15.36053442	     88.05749611
      0.03333330	      2.20166154	      1.15821635	     -4.86924040	      0.85639755	      0.82405031	      0.70774710	     17.74071307	     -1.55842285	      1.81427488	     62.36464171	      1.08846833	      4.58773797	    -14.72995986	     -7.17816905	      1.49115085	      5.02638118	      4.11583329	      9.30832345	      0.16246089	      7.63115956	     -8.58183597	     -7.17816905	     -6.16191687	     -0.31937551	     -1.03471899	      3.49619032	    -10.58696416	     -5.05449583	     17.20651189	     89.44906403	      6.63683711	    -10.98619883	      3.66201289	     14.61252921	     86.54189839
      0.05000000	      0.56979079	      0.80335022	     -4.56719218	      0.85805691	      0.82296810	      0.70661651	     20.42141810	     -1.12608098	      0.98942505	     58.57495368	      1.02232580	      6.70327317	    -13.85311586	     -7.20415782	      2.04694339	      4.36745934	      2.80318095	      9.64505119	      0.16833790	      9.60135398	     -6.60106887	     -7.20415782	     -3.70940908	      0.35353073	     -1.62216622	      2.97220282	    -10.88591811	     -4.43639451	     16.68896191	     87.45334402	      6.46380086	    -11.11405351	      3.73963896	     14.28659816	     84.53789809
      0.06666670	     -0.43241364	      0.77268385	     -4.48207810	      0.85910953	      0.82058569	      0.70659660	     22.24716838	     -0.84146964	      0.74142167	     54.28414893	      0.94743713	      7.64636036	    -13.32005324	     -7.21428797	      1.88114812	      4.28764401	      2.47040760	      9.63818111	      0.16821799	     10.74417318	     -6.58733074	     -7.21428797	     -2.09057216	      0.44746472	     -2.09652549	      2.17635840	    -10.92224730	     -4.24719889	     17.18802086	     87.11850506	      6.24452553	    -11.60430848	      3.71891111	     14.94381577	     84.21227434
      0.08333330	     -2.55451892	      0.49383045	     -4.31461743	      0.85957355	      0.81583363	      0.70747937	     25.08310620	     -0.25926852	      0.33296881	     49.82871818	      0.86967519	      7.66145725	    -13.03199098	     -7.26140556	      3.15333573	      3.75319804	      1.33458189	      9.95696948	      0.17378190	     12.61047080	     -4.51559675	     -7.26140556	      1.23921750	      1.02653716	     -3.03906672	      2.03755418	    -11.38477009	     -0.52554111	     15.42884246	     90.57389326	      6.14299685	    -11.85794532	      3.93606987	     13.87145349	     87.11351474
      0.10000000	     -3.45495885	      0.34768047	     -4.21217000	      0.85942560	      0.81314087	      0.70829906	     26.44432617	      0.14196800	      0.35940188	     45.30461178	      0.79071464	      7.10433495	    -13.46547380	     -7.27689957	      3.09256813	      3.51091602	      0.99332343	      9.96674533	      0.17395252	     13.64665284	     -3.75877513	     -7.27689957	      2.81799533	      1.28587364	     -3.42368470	      1.51372292	    -11.38958287	     -0.53294956	     15.05169271	     90.58491098	      6.35338916	    -12.01765978	      3.60951329	     13.99436175	     87.41229083
      0.11666670	     -4.18278858	      0.26191309	     -4.15112015	      0.85973069	      0.81198724	      0.70848512	     27.50616235	      0.41640147	      0.54344730	     40.83888488	      0.71277300	      6.74900311	    -13.52182204	     -7.28134120	      3.03672276	      3.27400904	      0.48512859	     10.11935562	      0.17661607	     14.68614740	     -2.86690206	     -7.28134120	      4.03314639	      1.39117204	     -3.63343774	      1.03733603	    -11.27515110	     -0.43628248	     14.74775124	     89.77111531	      6.67704052	    -12.21711988	      3.22869809	     14.32314078	     86.91942284
      0.13333330	     -4.60904943	      0.21340689	     -4.05776899	      0.86036316	      0.81119604	      0.70835608	     28.12284185	      0.54116160	      0.76495423	     36.31961462	      0.63389686	      6.67447723	    -13.24759759	     -7.30548421	      2.73314076	      3.07413121	     -0.10582728	     10.32295093	      0.18016948	     15.90730572	     -1.89850335	     -7.30548421	      4.80001438	      1.40321054	     -3.86201909	      0.78248286	    -11.27653494	      0.91050919	     14.30995635	     91.05461818	      7.01427245	    -12.61409066	      3.95382525	     14.86118339	     89.15061986
      0.15000000	     -4.96060515	      0.17328477	     -3.89162341	      0.86094263	      0.80948118	      0.70818209	     28.56536720	      0.57462709	      0.94722152	     31.66919263	      0.55273168	      6.70943214	    -12.70573481	     -7.30534355	      2.30094505	      2.94214420	     -0.47864345	     10.43042048	      0.18204518	     17.13207620	     -1.50421542	     -7.30534355	      5.49033721	      1.41865442	     -4.11651718	      0.47842167	    -11.13524240	      0.93910537	     13.95587498	     90.55469478	      7.40809036	    -12.77836324	      3.58454262	     14.99696959	     88.91645523
      0.16666670	     -5.13414038	      0.13931231	     -3.70291864	      0.86065250	      0.80754806	      0.70774253	     28.73861801	      0.56324234	      1.09091765	     26.86549462	      0.46889134	      6.70160946	    -11.84556174	     -7.30418856	      1.56129728	      2.87650634	     -1.00436754	     10.32996431	      0.18029189	     18.42566249	     -0.96869158	     -7.30418856	      5.88279551	      1.42494478	     -4.41875264	      0.35942398	    -10.99404738	      1.20469145	     13.43242148	     90.18826098	      7.73563214	    -12.99506113	      3.49572758	     15.22513477	     88.79858310
      0.18333330	     -4.99393886	      0.02000586	     -3.44183500	      0.85896221	      0.80640803	      0.70661372	     28.41296823	      0.60667365	      1.29189487	     21.90695914	      0.38234857	      6.42711156	    -10.99685872	     -7.31687667	      0.39190575	      2.77476943	     -1.65542827	     10.05462621	      0.17548633	     19.61173402	     -0.13196022	     -7.31687667	      5.75927896	      1.54039173	     -4.83462039	      0.33593027	    -11.00426278	      2.13553003	     13.22290335	     90.50267736	      7.86179819	    -13.32779435	      4.13114318	     15.96449439	     89.52477069
      0.20000000	     -5.07597872	     -0.04235529	     -3.02890773	      0.85651737	      0.80520061	      0.70502728	     28.23932147	      0.54195137	      1.53387533	     17.06585216	      0.29785531	      6.15310550	    -10.00027704	     -7.32425391	     -0.49956207	      2.74049865	     -2.01527378	      9.88419944	      0.17251182	     20.49453787	      0.46024032	     -7.32425391	      5.90822098	      1.58408489	     -5.30876534	      0.40573558	    -10.92699861	      2.64829605	     12.72897676	     90.39065420	      8.04848897	    -13.53915111	      4.38649679	     16.24014612	     89.78268855
      0.21666670	     -5.24007284	     -0.08530150	     -2.60380341	      0.85476699	      0.80366887	      0.70386868	     28.05917872	      0.44865465	      2.08005339	     12.40616755	      0.21652847	      5.94477726	     -9.00739417	     -7.33250905	     -1.29972442	      2.70042474	     -2.11132898	      9.88592537	      0.17254195	     21.08816073	      0.83183647	     -7.33250905	      6.09303814	      1.63077707	     -5.71516564	      0.39814549	    -10.83302954	      2.52816027	     12.56868327	     90.83392012	      8.15433161	    -13.69209367	      4.52904078	     16.44648788	     90.33928376
